<mxfile host="app.diagrams.net" modified="2022-03-21T17:24:18.031Z" agent="5.0 (Macintosh)" etag="a8Bs5pV4CQYM8Z0_74Q6" version="17.1.3" type="github">
  <diagram id="q5uySfuGyyFAdlzgSxIf" name="Page-1">
    <mxGraphModel dx="1678" dy="902" grid="1" gridSize="10" guides="1" tooltips="1" connect="1" arrows="1" fold="1" page="1" pageScale="1" pageWidth="850" pageHeight="1100" math="0" shadow="0">
      <root>
        <mxCell id="0" />
        <mxCell id="1" parent="0" />
        <mxCell id="7judBJOATlKyl89qZomi-54" style="edgeStyle=orthogonalEdgeStyle;rounded=0;orthogonalLoop=1;jettySize=auto;html=1;exitX=0;exitY=0.5;exitDx=0;exitDy=0;entryX=0.75;entryY=1;entryDx=0;entryDy=0;" parent="1" source="7judBJOATlKyl89qZomi-2" target="7judBJOATlKyl89qZomi-1" edge="1">
          <mxGeometry relative="1" as="geometry">
            <Array as="points">
              <mxPoint x="200" y="513" />
            </Array>
          </mxGeometry>
        </mxCell>
        <mxCell id="7judBJOATlKyl89qZomi-1" value="Perception" style="rounded=1;whiteSpace=wrap;html=1;" parent="1" vertex="1">
          <mxGeometry x="110" y="223" width="120" height="60" as="geometry" />
        </mxCell>
        <mxCell id="7judBJOATlKyl89qZomi-2" value="Localization" style="rounded=1;whiteSpace=wrap;html=1;" parent="1" vertex="1">
          <mxGeometry x="320" y="483" width="120" height="60" as="geometry" />
        </mxCell>
        <mxCell id="7judBJOATlKyl89qZomi-7" style="edgeStyle=orthogonalEdgeStyle;rounded=0;orthogonalLoop=1;jettySize=auto;html=1;exitX=0;exitY=0.5;exitDx=0;exitDy=0;" parent="1" source="7judBJOATlKyl89qZomi-6" target="7judBJOATlKyl89qZomi-4" edge="1">
          <mxGeometry relative="1" as="geometry" />
        </mxCell>
        <mxCell id="7judBJOATlKyl89qZomi-4" value="DependsOn" style="rounded=1;whiteSpace=wrap;html=1;" parent="1" vertex="1">
          <mxGeometry x="920" y="30" width="80" height="40" as="geometry" />
        </mxCell>
        <mxCell id="7judBJOATlKyl89qZomi-6" value="This" style="rounded=1;whiteSpace=wrap;html=1;" parent="1" vertex="1">
          <mxGeometry x="1060" y="30" width="80" height="40" as="geometry" />
        </mxCell>
        <mxCell id="7judBJOATlKyl89qZomi-10" style="edgeStyle=orthogonalEdgeStyle;rounded=0;orthogonalLoop=1;jettySize=auto;html=1;entryX=0;entryY=0.5;entryDx=0;entryDy=0;exitX=1;exitY=0.5;exitDx=0;exitDy=0;" parent="1" source="7judBJOATlKyl89qZomi-1" target="7judBJOATlKyl89qZomi-8" edge="1">
          <mxGeometry relative="1" as="geometry" />
        </mxCell>
        <mxCell id="7judBJOATlKyl89qZomi-14" style="edgeStyle=orthogonalEdgeStyle;rounded=0;orthogonalLoop=1;jettySize=auto;html=1;entryX=0.25;entryY=0;entryDx=0;entryDy=0;" parent="1" source="7judBJOATlKyl89qZomi-12" target="7judBJOATlKyl89qZomi-8" edge="1">
          <mxGeometry relative="1" as="geometry">
            <Array as="points">
              <mxPoint x="480" y="140" />
              <mxPoint x="480" y="140" />
            </Array>
          </mxGeometry>
        </mxCell>
        <mxCell id="7judBJOATlKyl89qZomi-15" style="edgeStyle=orthogonalEdgeStyle;rounded=0;orthogonalLoop=1;jettySize=auto;html=1;exitX=1;exitY=0.25;exitDx=0;exitDy=0;entryX=0.25;entryY=1;entryDx=0;entryDy=0;" parent="1" source="7judBJOATlKyl89qZomi-2" target="7judBJOATlKyl89qZomi-8" edge="1">
          <mxGeometry relative="1" as="geometry">
            <Array as="points">
              <mxPoint x="480" y="498" />
            </Array>
          </mxGeometry>
        </mxCell>
        <mxCell id="7judBJOATlKyl89qZomi-17" style="edgeStyle=orthogonalEdgeStyle;rounded=0;orthogonalLoop=1;jettySize=auto;html=1;exitX=0;exitY=0.5;exitDx=0;exitDy=0;entryX=1;entryY=0.75;entryDx=0;entryDy=0;" parent="1" source="7judBJOATlKyl89qZomi-16" target="7judBJOATlKyl89qZomi-11" edge="1">
          <mxGeometry relative="1" as="geometry">
            <Array as="points">
              <mxPoint x="930" y="713" />
              <mxPoint x="930" y="268" />
            </Array>
          </mxGeometry>
        </mxCell>
        <mxCell id="7judBJOATlKyl89qZomi-23" style="edgeStyle=orthogonalEdgeStyle;rounded=0;orthogonalLoop=1;jettySize=auto;html=1;exitX=0.5;exitY=0;exitDx=0;exitDy=0;entryX=0.75;entryY=0;entryDx=0;entryDy=0;" parent="1" source="7judBJOATlKyl89qZomi-1" target="7judBJOATlKyl89qZomi-11" edge="1">
          <mxGeometry relative="1" as="geometry">
            <Array as="points">
              <mxPoint x="170" y="60" />
              <mxPoint x="880" y="60" />
            </Array>
          </mxGeometry>
        </mxCell>
        <mxCell id="7judBJOATlKyl89qZomi-25" style="edgeStyle=orthogonalEdgeStyle;rounded=0;orthogonalLoop=1;jettySize=auto;html=1;exitX=1;exitY=0.5;exitDx=0;exitDy=0;entryX=0.25;entryY=0;entryDx=0;entryDy=0;" parent="1" source="7judBJOATlKyl89qZomi-12" target="7judBJOATlKyl89qZomi-11" edge="1">
          <mxGeometry relative="1" as="geometry" />
        </mxCell>
        <mxCell id="7-IdZ-WRil3FLbBQ27dM-9" style="edgeStyle=orthogonalEdgeStyle;rounded=0;orthogonalLoop=1;jettySize=auto;html=1;exitX=0.75;exitY=1;exitDx=0;exitDy=0;entryX=1;entryY=0.25;entryDx=0;entryDy=0;" edge="1" parent="1" source="7judBJOATlKyl89qZomi-11" target="7-IdZ-WRil3FLbBQ27dM-8">
          <mxGeometry relative="1" as="geometry" />
        </mxCell>
        <mxCell id="7-IdZ-WRil3FLbBQ27dM-11" style="edgeStyle=orthogonalEdgeStyle;rounded=0;orthogonalLoop=1;jettySize=auto;html=1;exitX=1;exitY=0.5;exitDx=0;exitDy=0;entryX=0;entryY=0.25;entryDx=0;entryDy=0;" edge="1" parent="1" source="7judBJOATlKyl89qZomi-11" target="7judBJOATlKyl89qZomi-29">
          <mxGeometry relative="1" as="geometry">
            <Array as="points">
              <mxPoint x="990" y="253" />
              <mxPoint x="990" y="408" />
            </Array>
          </mxGeometry>
        </mxCell>
        <mxCell id="7judBJOATlKyl89qZomi-11" value="Planning" style="rounded=1;whiteSpace=wrap;html=1;" parent="1" vertex="1">
          <mxGeometry x="790" y="223" width="120" height="60" as="geometry" />
        </mxCell>
        <mxCell id="7-IdZ-WRil3FLbBQ27dM-7" style="edgeStyle=orthogonalEdgeStyle;rounded=0;orthogonalLoop=1;jettySize=auto;html=1;exitX=0;exitY=0.25;exitDx=0;exitDy=0;entryX=0;entryY=0.5;entryDx=0;entryDy=0;" edge="1" parent="1" source="7judBJOATlKyl89qZomi-12" target="7judBJOATlKyl89qZomi-21">
          <mxGeometry relative="1" as="geometry" />
        </mxCell>
        <mxCell id="7judBJOATlKyl89qZomi-12" value="Storytelling" style="rounded=1;whiteSpace=wrap;html=1;" parent="1" vertex="1">
          <mxGeometry x="590" y="110" width="120" height="60" as="geometry" />
        </mxCell>
        <mxCell id="7judBJOATlKyl89qZomi-16" value="CanBUS" style="rounded=1;whiteSpace=wrap;html=1;" parent="1" vertex="1">
          <mxGeometry x="990" y="683" width="120" height="60" as="geometry" />
        </mxCell>
        <mxCell id="7judBJOATlKyl89qZomi-18" value="Routing" style="rounded=1;whiteSpace=wrap;html=1;" parent="1" vertex="1">
          <mxGeometry x="620" y="320" width="120" height="60" as="geometry" />
        </mxCell>
        <mxCell id="7judBJOATlKyl89qZomi-32" style="edgeStyle=orthogonalEdgeStyle;rounded=0;orthogonalLoop=1;jettySize=auto;html=1;exitX=0.25;exitY=1;exitDx=0;exitDy=0;entryX=0.75;entryY=1;entryDx=0;entryDy=0;" parent="1" source="7judBJOATlKyl89qZomi-16" target="7judBJOATlKyl89qZomi-21" edge="1">
          <mxGeometry relative="1" as="geometry">
            <Array as="points">
              <mxPoint x="1020" y="763" />
              <mxPoint x="200" y="763" />
            </Array>
          </mxGeometry>
        </mxCell>
        <mxCell id="7judBJOATlKyl89qZomi-33" style="edgeStyle=orthogonalEdgeStyle;rounded=0;orthogonalLoop=1;jettySize=auto;html=1;exitX=0.25;exitY=1;exitDx=0;exitDy=0;entryX=0.25;entryY=0;entryDx=0;entryDy=0;" parent="1" source="7judBJOATlKyl89qZomi-1" target="7judBJOATlKyl89qZomi-21" edge="1">
          <mxGeometry relative="1" as="geometry">
            <Array as="points" />
          </mxGeometry>
        </mxCell>
        <mxCell id="7judBJOATlKyl89qZomi-68" style="edgeStyle=orthogonalEdgeStyle;rounded=0;orthogonalLoop=1;jettySize=auto;html=1;exitX=0;exitY=0.75;exitDx=0;exitDy=0;entryX=0.5;entryY=0;entryDx=0;entryDy=0;endArrow=classic;endFill=1;strokeColor=default;" parent="1" source="7judBJOATlKyl89qZomi-2" target="7judBJOATlKyl89qZomi-21" edge="1">
          <mxGeometry relative="1" as="geometry" />
        </mxCell>
        <mxCell id="7judBJOATlKyl89qZomi-21" value="Map" style="rounded=1;whiteSpace=wrap;html=1;" parent="1" vertex="1">
          <mxGeometry x="110" y="663" width="120" height="60" as="geometry" />
        </mxCell>
        <mxCell id="7judBJOATlKyl89qZomi-30" style="edgeStyle=orthogonalEdgeStyle;rounded=0;orthogonalLoop=1;jettySize=auto;html=1;entryX=0.25;entryY=0;entryDx=0;entryDy=0;exitX=1;exitY=0.25;exitDx=0;exitDy=0;" parent="1" source="7judBJOATlKyl89qZomi-26" target="7judBJOATlKyl89qZomi-29" edge="1">
          <mxGeometry relative="1" as="geometry" />
        </mxCell>
        <mxCell id="7judBJOATlKyl89qZomi-58" style="edgeStyle=orthogonalEdgeStyle;rounded=0;orthogonalLoop=1;jettySize=auto;html=1;strokeColor=default;exitX=1;exitY=0.5;exitDx=0;exitDy=0;" parent="1" source="7judBJOATlKyl89qZomi-16" target="7judBJOATlKyl89qZomi-26" edge="1">
          <mxGeometry relative="1" as="geometry">
            <Array as="points">
              <mxPoint x="1260" y="713" />
              <mxPoint x="1260" y="253" />
            </Array>
          </mxGeometry>
        </mxCell>
        <mxCell id="7judBJOATlKyl89qZomi-66" style="edgeStyle=orthogonalEdgeStyle;rounded=0;orthogonalLoop=1;jettySize=auto;html=1;exitX=1;exitY=0.25;exitDx=0;exitDy=0;entryX=0;entryY=0.25;entryDx=0;entryDy=0;endArrow=classic;endFill=1;strokeColor=default;" parent="1" source="7judBJOATlKyl89qZomi-11" target="7judBJOATlKyl89qZomi-26" edge="1">
          <mxGeometry relative="1" as="geometry" />
        </mxCell>
        <mxCell id="7judBJOATlKyl89qZomi-26" value="Control" style="rounded=1;whiteSpace=wrap;html=1;" parent="1" vertex="1">
          <mxGeometry x="1040" y="223" width="120" height="60" as="geometry" />
        </mxCell>
        <mxCell id="7judBJOATlKyl89qZomi-41" style="edgeStyle=orthogonalEdgeStyle;rounded=0;orthogonalLoop=1;jettySize=auto;html=1;exitX=0.75;exitY=1;exitDx=0;exitDy=0;entryX=0.75;entryY=1;entryDx=0;entryDy=0;" parent="1" source="7judBJOATlKyl89qZomi-2" target="7judBJOATlKyl89qZomi-29" edge="1">
          <mxGeometry relative="1" as="geometry">
            <Array as="points">
              <mxPoint x="410" y="790" />
              <mxPoint x="1400" y="790" />
            </Array>
          </mxGeometry>
        </mxCell>
        <mxCell id="7judBJOATlKyl89qZomi-42" style="edgeStyle=orthogonalEdgeStyle;rounded=0;orthogonalLoop=1;jettySize=auto;html=1;exitX=0.5;exitY=1;exitDx=0;exitDy=0;entryX=1;entryY=0.5;entryDx=0;entryDy=0;" parent="1" source="7judBJOATlKyl89qZomi-21" target="7judBJOATlKyl89qZomi-29" edge="1">
          <mxGeometry relative="1" as="geometry">
            <Array as="points">
              <mxPoint x="170" y="820" />
              <mxPoint x="1450" y="820" />
              <mxPoint x="1450" y="423" />
            </Array>
          </mxGeometry>
        </mxCell>
        <mxCell id="7judBJOATlKyl89qZomi-43" style="edgeStyle=orthogonalEdgeStyle;rounded=0;orthogonalLoop=1;jettySize=auto;html=1;exitX=0.75;exitY=1;exitDx=0;exitDy=0;entryX=0.5;entryY=1;entryDx=0;entryDy=0;" parent="1" source="7judBJOATlKyl89qZomi-16" target="7judBJOATlKyl89qZomi-29" edge="1">
          <mxGeometry relative="1" as="geometry" />
        </mxCell>
        <mxCell id="7judBJOATlKyl89qZomi-45" style="edgeStyle=orthogonalEdgeStyle;rounded=0;orthogonalLoop=1;jettySize=auto;html=1;exitX=0.25;exitY=0;exitDx=0;exitDy=0;entryX=0.5;entryY=0;entryDx=0;entryDy=0;" parent="1" source="7judBJOATlKyl89qZomi-1" target="7judBJOATlKyl89qZomi-29" edge="1">
          <mxGeometry relative="1" as="geometry">
            <Array as="points">
              <mxPoint x="140" y="20" />
              <mxPoint x="1370" y="20" />
            </Array>
          </mxGeometry>
        </mxCell>
        <mxCell id="7judBJOATlKyl89qZomi-46" style="edgeStyle=orthogonalEdgeStyle;rounded=0;orthogonalLoop=1;jettySize=auto;html=1;exitX=0.75;exitY=1;exitDx=0;exitDy=0;entryX=0;entryY=0.5;entryDx=0;entryDy=0;" parent="1" source="7judBJOATlKyl89qZomi-8" target="7judBJOATlKyl89qZomi-29" edge="1">
          <mxGeometry relative="1" as="geometry" />
        </mxCell>
        <mxCell id="7-IdZ-WRil3FLbBQ27dM-12" style="edgeStyle=orthogonalEdgeStyle;rounded=0;orthogonalLoop=1;jettySize=auto;html=1;exitX=0;exitY=0.75;exitDx=0;exitDy=0;entryX=1;entryY=0.75;entryDx=0;entryDy=0;" edge="1" parent="1" source="7judBJOATlKyl89qZomi-29" target="7-IdZ-WRil3FLbBQ27dM-8">
          <mxGeometry relative="1" as="geometry">
            <Array as="points">
              <mxPoint x="900" y="438" />
              <mxPoint x="900" y="595" />
            </Array>
          </mxGeometry>
        </mxCell>
        <mxCell id="7judBJOATlKyl89qZomi-29" value="Monitor" style="rounded=1;whiteSpace=wrap;html=1;" parent="1" vertex="1">
          <mxGeometry x="1310" y="393" width="120" height="60" as="geometry" />
        </mxCell>
        <mxCell id="7judBJOATlKyl89qZomi-36" style="edgeStyle=orthogonalEdgeStyle;rounded=0;orthogonalLoop=1;jettySize=auto;html=1;entryX=0.75;entryY=0;entryDx=0;entryDy=0;" parent="1" target="7judBJOATlKyl89qZomi-35" edge="1">
          <mxGeometry relative="1" as="geometry">
            <Array as="points">
              <mxPoint x="1080" y="410" />
              <mxPoint x="1080" y="410" />
            </Array>
            <mxPoint x="1080" y="280" as="sourcePoint" />
          </mxGeometry>
        </mxCell>
        <mxCell id="7judBJOATlKyl89qZomi-37" style="edgeStyle=orthogonalEdgeStyle;rounded=0;orthogonalLoop=1;jettySize=auto;html=1;exitX=0.25;exitY=1;exitDx=0;exitDy=0;" parent="1" source="7judBJOATlKyl89qZomi-29" target="7judBJOATlKyl89qZomi-35" edge="1">
          <mxGeometry relative="1" as="geometry" />
        </mxCell>
        <mxCell id="7-IdZ-WRil3FLbBQ27dM-1" style="edgeStyle=orthogonalEdgeStyle;rounded=0;orthogonalLoop=1;jettySize=auto;html=1;entryX=1;entryY=0.25;entryDx=0;entryDy=0;" edge="1" parent="1" source="7judBJOATlKyl89qZomi-8" target="7judBJOATlKyl89qZomi-21">
          <mxGeometry relative="1" as="geometry">
            <Array as="points">
              <mxPoint x="520" y="678" />
            </Array>
          </mxGeometry>
        </mxCell>
        <mxCell id="7judBJOATlKyl89qZomi-8" value="Prediction" style="rounded=1;whiteSpace=wrap;html=1;" parent="1" vertex="1">
          <mxGeometry x="450" y="223" width="120" height="60" as="geometry" />
        </mxCell>
        <mxCell id="7judBJOATlKyl89qZomi-35" value="Guardian" style="rounded=1;whiteSpace=wrap;html=1;" parent="1" vertex="1">
          <mxGeometry x="990" y="550" width="120" height="60" as="geometry" />
        </mxCell>
        <mxCell id="7judBJOATlKyl89qZomi-62" value="" style="endArrow=classic;startArrow=classic;html=1;rounded=0;strokeColor=default;exitX=0;exitY=0.5;exitDx=0;exitDy=0;entryX=1;entryY=0.5;entryDx=0;entryDy=0;" parent="1" source="7judBJOATlKyl89qZomi-11" target="7judBJOATlKyl89qZomi-8" edge="1">
          <mxGeometry width="50" height="50" relative="1" as="geometry">
            <mxPoint x="640" y="210" as="sourcePoint" />
            <mxPoint x="590" y="260" as="targetPoint" />
          </mxGeometry>
        </mxCell>
        <mxCell id="7judBJOATlKyl89qZomi-63" value="" style="endArrow=classic;startArrow=classic;html=1;rounded=0;strokeColor=default;exitX=0;exitY=0.75;exitDx=0;exitDy=0;entryX=0.5;entryY=0;entryDx=0;entryDy=0;edgeStyle=orthogonalEdgeStyle;" parent="1" source="7judBJOATlKyl89qZomi-11" target="7judBJOATlKyl89qZomi-18" edge="1">
          <mxGeometry width="50" height="50" relative="1" as="geometry">
            <mxPoint x="760" y="263" as="sourcePoint" />
            <mxPoint x="580" y="263" as="targetPoint" />
          </mxGeometry>
        </mxCell>
        <mxCell id="7judBJOATlKyl89qZomi-67" value="" style="endArrow=classic;startArrow=classic;html=1;rounded=0;strokeColor=default;exitX=0.5;exitY=0;exitDx=0;exitDy=0;entryX=0.5;entryY=1;entryDx=0;entryDy=0;" parent="1" source="7judBJOATlKyl89qZomi-16" target="7judBJOATlKyl89qZomi-35" edge="1">
          <mxGeometry width="50" height="50" relative="1" as="geometry">
            <mxPoint x="1290" y="640" as="sourcePoint" />
            <mxPoint x="1070" y="640" as="targetPoint" />
          </mxGeometry>
        </mxCell>
        <mxCell id="7-IdZ-WRil3FLbBQ27dM-2" value="" style="endArrow=classic;startArrow=classic;html=1;rounded=0;strokeColor=default;exitX=0.25;exitY=1;exitDx=0;exitDy=0;entryX=1;entryY=0.75;entryDx=0;entryDy=0;edgeStyle=orthogonalEdgeStyle;" edge="1" parent="1" source="7judBJOATlKyl89qZomi-11" target="7judBJOATlKyl89qZomi-2">
          <mxGeometry width="50" height="50" relative="1" as="geometry">
            <mxPoint x="719.9999999999995" y="491" as="sourcePoint" />
            <mxPoint x="610" y="543" as="targetPoint" />
          </mxGeometry>
        </mxCell>
        <mxCell id="7-IdZ-WRil3FLbBQ27dM-3" value="" style="endArrow=classic;startArrow=classic;html=1;rounded=0;strokeColor=default;exitX=0.5;exitY=1;exitDx=0;exitDy=0;entryX=1;entryY=0.75;entryDx=0;entryDy=0;edgeStyle=orthogonalEdgeStyle;" edge="1" parent="1" source="7judBJOATlKyl89qZomi-11" target="7judBJOATlKyl89qZomi-21">
          <mxGeometry width="50" height="50" relative="1" as="geometry">
            <mxPoint x="899.9999999999995" y="510" as="sourcePoint" />
            <mxPoint x="520" y="755" as="targetPoint" />
          </mxGeometry>
        </mxCell>
        <mxCell id="7-IdZ-WRil3FLbBQ27dM-4" value="" style="endArrow=classic;startArrow=classic;html=1;rounded=0;strokeColor=default;exitX=0.5;exitY=0;exitDx=0;exitDy=0;entryX=0.5;entryY=0;entryDx=0;entryDy=0;edgeStyle=orthogonalEdgeStyle;" edge="1" parent="1" source="7judBJOATlKyl89qZomi-26" target="7judBJOATlKyl89qZomi-2">
          <mxGeometry width="50" height="50" relative="1" as="geometry">
            <mxPoint x="829.9999999999995" y="293" as="sourcePoint" />
            <mxPoint x="450" y="538" as="targetPoint" />
            <Array as="points">
              <mxPoint x="1100" y="90" />
              <mxPoint x="380" y="90" />
            </Array>
          </mxGeometry>
        </mxCell>
        <mxCell id="7-IdZ-WRil3FLbBQ27dM-5" value="" style="endArrow=classic;startArrow=classic;html=1;rounded=0;strokeColor=default;exitX=0.5;exitY=1;exitDx=0;exitDy=0;entryX=1;entryY=0.5;entryDx=0;entryDy=0;edgeStyle=orthogonalEdgeStyle;" edge="1" parent="1" source="7judBJOATlKyl89qZomi-18" target="7judBJOATlKyl89qZomi-21">
          <mxGeometry width="50" height="50" relative="1" as="geometry">
            <mxPoint x="829.9999999999995" y="293" as="sourcePoint" />
            <mxPoint x="450" y="538" as="targetPoint" />
            <Array as="points">
              <mxPoint x="680" y="693" />
            </Array>
          </mxGeometry>
        </mxCell>
        <mxCell id="7-IdZ-WRil3FLbBQ27dM-10" style="edgeStyle=orthogonalEdgeStyle;rounded=0;orthogonalLoop=1;jettySize=auto;html=1;exitX=0;exitY=0.5;exitDx=0;exitDy=0;entryX=0.75;entryY=0;entryDx=0;entryDy=0;" edge="1" parent="1" source="7-IdZ-WRil3FLbBQ27dM-8" target="7judBJOATlKyl89qZomi-21">
          <mxGeometry relative="1" as="geometry" />
        </mxCell>
        <mxCell id="7-IdZ-WRil3FLbBQ27dM-8" value="HMI" style="rounded=1;whiteSpace=wrap;html=1;" vertex="1" parent="1">
          <mxGeometry x="710" y="550" width="120" height="60" as="geometry" />
        </mxCell>
      </root>
    </mxGraphModel>
  </diagram>
</mxfile>
